<?xml version="1.0" encoding="UTF-8"?>
<svg id="Layer_1" xmlns="http://www.w3.org/2000/svg" version="1.1" viewBox="0 0 16 16">
  <!-- Generator: Adobe Illustrator 30.0.0, SVG Export Plug-In . SVG Version: 2.1.1 Build 123)  -->
  <defs>
    <style>
      .st0 {
        fill: #231f20;
      }
    </style>
  </defs>
  <path class="st0" d="M11,4.8c-.2,0-.4,0-.5-.2l-2.5-2.5-2.5,2.5c-.3.3-.8.3-1.1,0s-.3-.8,0-1.1L7.5.5c.3-.3.8-.3,1.1,0l3,3c.3.3.3.8,0,1.1s-.3.2-.5.2Z"/>
  <path class="st0" d="M8,10.3c-.4,0-.8-.3-.8-.8V1c0-.4.3-.8.8-.8s.8.3.8.8v8.6c0,.4-.3.8-.8.8Z"/>
  <path class="st0" d="M13,15.8H3c-1.5,0-2.8-1.2-2.8-2.8v-3.3c0-.4.3-.8.8-.8s.8.3.8.8v3.3c0,.7.6,1.2,1.2,1.2h10c.7,0,1.2-.6,1.2-1.2v-3.3c0-.4.3-.8.8-.8s.8.3.8.8v3.3c0,1.5-1.2,2.8-2.8,2.8Z"/>
</svg>