<?xml version="1.0" encoding="UTF-8"?>
<svg id="Layer_1" xmlns="http://www.w3.org/2000/svg" version="1.1" viewBox="0 0 16 16">
  <!-- Generator: Adobe Illustrator 30.0.0, SVG Export Plug-In . SVG Version: 2.1.1 Build 123)  -->
  <defs>
    <style>
      .st0 {
        fill: #231f20;
      }
    </style>
  </defs>
  <path class="st0" d="M6.8,13.2C3.2,13.2.2,10.3.2,6.8S3.2.2,6.8.2s6.5,2.9,6.5,6.5-2.9,6.5-6.5,6.5ZM6.8,1.8C4,1.8,1.8,4,1.8,6.8s2.2,5,5,5,5-2.2,5-5S9.5,1.8,6.8,1.8Z"/>
  <path class="st0" d="M15,15.8c-.2,0-.4,0-.5-.2l-4.2-4.2c-.3-.3-.3-.8,0-1.1s.8-.3,1.1,0l4.2,4.2c.3.3.3.8,0,1.1s-.3.2-.5.2Z"/>
</svg>