<svg xmlns="http://www.w3.org/2000/svg" viewBox="0 0 16 16">
  <path d="M16,16.5c-.1,0-.3,0-.4-.1l-4.3-4.3c-.5.4-1.1.8-1.7,1.1-1.6.7-3.4.7-5,0-1.6-.7-2.9-1.9-3.6-3.5h0c-.7-1.6-.7-3.4,0-5,.7-1.6,1.9-2.9,3.5-3.6,1.6-.7,3.4-.7,5,0,1.6.7,2.9,1.9,3.6,3.5.7,1.6.7,3.4,0,5-.3.7-.6,1.3-1.1,1.8l4.3,4.3c.2.2.2.5,0,.7s-.2.1-.4.1ZM1.9,9.2c.6,1.4,1.7,2.4,3,3,1.4.6,2.9.5,4.2,0,.6-.3,1.2-.7,1.7-1.1,0,0,0,0,0,0s0,0,0,0c.5-.5.9-1.1,1.2-1.8.6-1.4.5-2.9,0-4.2-.6-1.4-1.7-2.4-3-3-1.4-.6-2.9-.5-4.2,0-1.4.6-2.4,1.7-3,3-.6,1.4-.5,2.9,0,4.2h0Z"/>
</svg>