<?xml version="1.0" encoding="UTF-8"?>
<svg id="Layer_1" xmlns="http://www.w3.org/2000/svg" version="1.1" viewBox="0 0 16 16">
  <!-- Generator: Adobe Illustrator 30.0.0, SVG Export Plug-In . SVG Version: 2.1.1 Build 123)  -->
  <defs>
    <style>
      .st0 {
        fill: #010101;
      }
    </style>
  </defs>
  <path class="st0" d="M8,15.8c-.1,0-.3,0-.4-.1l-6.1-3.5c-.2-.1-.4-.4-.4-.6v-7c0-.3.1-.5.4-.6L7.6.4c.2-.1.5-.1.8,0l6.1,3.5c.2.1.4.4.4.6v7c0,.3-.1.5-.4.6l-6.1,3.5c-.1,0-.2.1-.4.1ZM2.7,11.1l5.3,3.1,5.3-3.1v-6.1l-5.3-3.1-5.3,3.1v6.1Z"/>
  <path class="st0" d="M8,10.8c-1.5,0-2.8-1.2-2.8-2.8s1.2-2.8,2.8-2.8,2.8,1.2,2.8,2.8-1.2,2.8-2.8,2.8ZM8,6.8c-.7,0-1.2.6-1.2,1.2s.6,1.2,1.2,1.2,1.2-.6,1.2-1.2-.6-1.2-1.2-1.2Z"/>
</svg>