<svg xmlns="http://www.w3.org/2000/svg" viewBox="0 0 16 16">
  <path d="M8,16c-.4,0-.7,0-1.1-.3l-5.1-3.2c-.3-.2-.6-.4-.8-.8-.2-.3-.3-.7-.3-1.1v-5.5c0-.8.4-1.5,1.1-1.9L6.9.3c.7-.4,1.5-.4,2.2,0l5.1,3s0,0,0,0c.3.2.5.4.7.7.2.3.3.7.3,1.1v5.5c0,.8-.4,1.5-1.1,1.9l-5,3.2c-.4.2-.7.3-1.1.3ZM8,1c-.2,0-.4,0-.6.2l-5,3c-.4.2-.6.6-.6,1v5.5c0,.2,0,.4.2.6.1.2.3.3.4.4l5.1,3.2c.3.2.8.2,1.1,0l5-3.2c.4-.2.6-.6.6-1v-5.5c0-.2,0-.4-.2-.6-.1-.2-.3-.3-.4-.4,0,0,0,0,0,0l-4.9-2.9c-.2,0-.4-.1-.6-.1Z"/>
  <path d="M8,10.8c-.8,0-1.5-.3-2-.8s-.8-1.2-.8-2,.3-1.5.8-2c1.1-1.1,2.9-1.1,4,0,.5.5.8,1.2.8,2s-.3,1.5-.8,2-1.2.8-2,.8ZM8,6.2c-.5,0-1,.2-1.3.5s-.5.8-.5,1.3.2.9.5,1.3c.7.7,1.9.7,2.6,0,.3-.3.5-.8.5-1.3s-.2-1-.5-1.3c-.3-.3-.8-.5-1.3-.5Z"/>
</svg>