<?xml version="1.0" encoding="UTF-8"?>
<svg id="Layer_1" xmlns="http://www.w3.org/2000/svg" version="1.1" viewBox="0 0 16 16">
  <!-- Generator: Adobe Illustrator 30.0.0, SVG Export Plug-In . SVG Version: 2.1.1 Build 123)  -->
  <defs>
    <style>
      .st0 {
        fill: #231f20;
      }
    </style>
  </defs>
  <path class="st0" d="M15,15.8c-.2,0-.4,0-.5-.2L.5,1.5C.2,1.2.2.8.5.5S1.2.2,1.5.5l14,14c.3.3.3.8,0,1.1s-.3.2-.5.2Z"/>
  <path class="st0" d="M1,15.8c-.2,0-.4,0-.5-.2-.3-.3-.3-.8,0-1.1L14.5.5c.3-.3.8-.3,1.1,0s.3.8,0,1.1L1.5,15.5c-.1.1-.3.2-.5.2Z"/>
</svg>