<?xml version="1.0" encoding="UTF-8"?>
<svg id="Layer_1" xmlns="http://www.w3.org/2000/svg" version="1.1" viewBox="0 0 16 16">
  <!-- Generator: Adobe Illustrator 30.0.0, SVG Export Plug-In . SVG Version: 2.1.1 Build 123)  -->
  <path d="M15,8.8H1c-.4,0-.8-.3-.8-.8s.3-.8.8-.8h14c.4,0,.8.3.8.8s-.3.8-.8.8Z"/>
  <path d="M15,8.8c-.2,0-.4,0-.5-.2L7.5,1.5c-.3-.3-.3-.8,0-1.1s.8-.3,1.1,0l7,7c.3.3.3.8,0,1.1s-.3.2-.5.2Z"/>
  <path d="M8,15.8c-.2,0-.4,0-.5-.2-.3-.3-.3-.8,0-1.1l7-7c.3-.3.8-.3,1.1,0s.3.8,0,1.1l-7,7c-.1.1-.3.2-.5.2Z"/>
</svg>