<svg xmlns="http://www.w3.org/2000/svg" viewBox="0 0 16 16">
  <path d="M5.2,16c-1.4,0-2.7-.5-3.7-1.5-.5-.5-.9-1-1.1-1.7C.1,12.2,0,11.5,0,10.8s.1-1.4.4-2c.3-.6.6-1.2,1.1-1.7l.5-.5c.2-.2.5-.2.7,0,.2.2.2.5,0,.7l-.5.4c-.4.4-.7.8-.9,1.3-.2.5-.3,1-.3,1.6s.1,1.1.3,1.6.5,1,.9,1.4c.8.8,1.9,1.2,3,1.2s2.2-.4,3-1.2l.3-.4c.2-.2.5-.3.7-.1.2.2.3.5.1.7l-.4.5c-1,1-2.4,1.6-3.7,1.6ZM5.2,11.3c-.1,0-.3,0-.4-.1-.2-.2-.2-.5,0-.7l5.6-5.6c.2-.2.5-.2.7,0s.2.5,0,.7l-5.6,5.6c0,0-.2.1-.4.1ZM13.6,9.4c-.1,0-.3,0-.4-.2-.2-.2-.2-.5,0-.7l.5-.4c.8-.8,1.2-1.8,1.2-2.9s-.4-2.2-1.2-3c-.8-.8-1.8-1.2-3-1.2s-2.2.4-3,1.2l-.4.5c-.2.2-.5.2-.7,0-.2-.2-.2-.5,0-.7l.4-.5c1-1,2.3-1.5,3.7-1.5s2.7.5,3.7,1.5c1,1,1.5,2.3,1.5,3.7s-.5,2.7-1.5,3.7l-.5.5c0,0-.2.1-.3.1Z"/>
</svg>