<?xml version="1.0" encoding="UTF-8"?>
<svg id="Layer_1" xmlns="http://www.w3.org/2000/svg" version="1.1" viewBox="0 0 16 16">
  <!-- Generator: Adobe Illustrator 30.0.0, SVG Export Plug-In . SVG Version: 2.1.1 Build 123)  -->
  <defs>
    <style>
      .st0 {
        fill: #010101;
      }
    </style>
  </defs>
  <path class="st0" d="M6.5,15.8c-1.7,0-3.2-.6-4.4-1.8C-.4,11.5-.4,7.6,2.1,5.2s.8-.3,1.1,0,.3.8,0,1.1c-.9.9-1.4,2.1-1.4,3.3s.5,2.4,1.4,3.3c.9.9,2.1,1.4,3.3,1.4s2.4-.5,3.3-1.4.8-.3,1.1,0,.3.8,0,1.1c-1.2,1.2-2.7,1.8-4.4,1.8Z"/>
  <path class="st0" d="M13.4,11.1c-.2,0-.4,0-.5-.2-.3-.3-.3-.8,0-1.1.9-.9,1.4-2.1,1.4-3.3s-.5-2.4-1.4-3.3c-1.8-1.8-4.8-1.8-6.7,0s-.8.3-1.1,0-.3-.8,0-1.1C6.3.9,7.9.2,9.5.2s3.2.6,4.4,1.8c1.2,1.2,1.8,2.7,1.8,4.4s-.6,3.2-1.8,4.4c-.1.1-.3.2-.5.2Z"/>
  <path class="st0" d="M6.6,10.2c-.2,0-.4,0-.5-.2-.3-.3-.3-.8,0-1.1l3-3c.3-.3.8-.3,1.1,0s.3.8,0,1.1l-3,3c-.1.1-.3.2-.5.2Z"/>
</svg>