<?xml version="1.0" encoding="UTF-8"?>
<svg id="Layer_1" xmlns="http://www.w3.org/2000/svg" version="1.1" viewBox="0 0 16 16">
  <!-- Generator: Adobe Illustrator 30.0.0, SVG Export Plug-In . SVG Version: 2.1.1 Build 123)  -->
  <defs>
    <style>
      .st0 {
        fill: #231f20;
      }
    </style>
  </defs>
  <path class="st0" d="M9.7,15.8h-3.4c-1.7,0-2.5-.7-2.8-2.2-.2-1.4-1.3-8.8-1.3-8.8l1.5-.2s1.1,7.4,1.3,8.8c.1.7.2.9,1.3.9h3.4c1.1,0,1.2-.2,1.3-.9.2-1.4,1.3-8.8,1.3-8.8l1.5.2s-1.1,7.4-1.3,8.8c-.2,1.6-1,2.2-2.8,2.2Z"/>
  <path class="st0" d="M15,5.4H1c-.4,0-.8-.3-.8-.8s.3-.8.8-.8h14c.4,0,.8.3.8.8s-.3.8-.8.8Z"/>
  <path class="st0" d="M10.6,1.8h-5.3c-.4,0-.8-.3-.8-.8s.3-.8.8-.8h5.3c.4,0,.8.3.8.8s-.3.8-.8.8Z"/>
</svg>