<?xml version="1.0" encoding="UTF-8"?>
<svg id="Layer_1" xmlns="http://www.w3.org/2000/svg" version="1.1" viewBox="0 0 16 16">
  <!-- Generator: Adobe Illustrator 30.0.0, SVG Export Plug-In . SVG Version: 2.1.1 Build 123)  -->
  <path d="M8,15.8C2.4,15.8.2,13.6.2,8S1.4.2,8,.2s7.8,1.5,7.8,7.8-2.5,7.8-7.8,7.8ZM8,1.8C2.6,1.8,1.8,3.2,1.8,8s1.5,6.2,6.2,6.2,6.2-.9,6.2-6.2-.9-6.2-6.2-6.2Z"/>
  <path d="M8,8.9c-.4,0-.8-.3-.8-.8v-3.8c0-.4.3-.8.8-.8s.8.3.8.8v3.8c0,.4-.3.8-.8.8Z"/>
  <circle cx="8" cy="11.3" r="1"/>
</svg>