<?xml version="1.0" encoding="UTF-8"?>
<svg id="Layer_1" xmlns="http://www.w3.org/2000/svg" version="1.1" viewBox="0 0 16 16">
  <!-- Generator: Adobe Illustrator 30.0.0, SVG Export Plug-In . SVG Version: 2.1.1 Build 123)  -->
  <defs>
    <style>
      .st0 {
        fill: #231f20;
      }
    </style>
  </defs>
  <path class="st0" d="M11,13.2c-.2,0-.4,0-.5-.2-.3-.3-.3-.7,0-1.1l3.5-4-3.5-4c-.3-.3-.2-.8,0-1.1s.8-.2,1.1,0l4,4.5c.3.3.3.7,0,1l-4,4.5c-.1.2-.4.3-.6.3Z"/>
  <path class="st0" d="M5,13.2c-.2,0-.4,0-.6-.3L.4,8.5c-.3-.3-.3-.7,0-1l4-4.5c.3-.3.7-.3,1.1,0,.3.3.3.7,0,1.1l-3.5,4,3.5,4c.3.3.2.8,0,1.1-.1.1-.3.2-.5.2Z"/>
</svg>