<svg xmlns="http://www.w3.org/2000/svg" viewBox="0 0 16 16">
  <path d="M13.6,16H4.2c-.6,0-1.2-.2-1.7-.7-.4-.4-.7-1.1-.7-1.7v-1.4H.5c-.3,0-.5-.2-.5-.5s.2-.5.5-.5h1.4v-2.8H.5c-.3,0-.5-.2-.5-.5s.2-.5.5-.5h1.4v-2.8H.5c-.3,0-.5-.2-.5-.5s.2-.5.5-.5h1.4v-1.4c0-.6.2-1.2.7-1.7s1-.7,1.7-.7h9.4c.6,0,1.2.3,1.7.7s.7,1,.7,1.7v11.2c0,.3,0,.6-.2.9s-.3.5-.5.8c-.2.2-.5.4-.8.5-.3.1-.6.2-.9.2ZM2.9,12.2v1.4c0,.4.1.7.4,1,.3.3.6.4,1,.4h9.4c.2,0,.4,0,.5-.1.2,0,.3-.2.4-.3s.2-.3.3-.4c0-.2.1-.3.1-.5V2.4c0-.4-.1-.7-.4-1s-.6-.4-1-.4H4.2c-.4,0-.7.1-1,.4s-.4.6-.4,1v1.4h.4c.3,0,.5.2.5.5s-.2.5-.5.5h-.4v2.8h.4c.3,0,.5.2.5.5s-.2.5-.5.5h-.4v2.8h.4c.3,0,.5.2.5.5s-.2.5-.5.5h-.4ZM11.8,12.2h-5.6c-.3,0-.5-.2-.5-.5s.2-.5.5-.5h5.6c.3,0,.5.2.5.5s-.2.5-.5.5ZM8.9,9.4c-.3,0-.6,0-.9-.2s-.5-.3-.8-.5c-.2-.2-.4-.5-.5-.8-.1-.3-.2-.6-.2-.9s0-.6.2-.9c.1-.3.3-.5.5-.8.2-.2.5-.4.8-.5.6-.2,1.2-.2,1.8,0,.3.1.5.3.8.5.2.2.4.5.5.8.1.3.2.6.2.9s0,.6-.2.9c-.1.3-.3.5-.5.8-.2.2-.5.4-.8.5-.3.1-.6.2-.9.2ZM8.9,5.7c-.2,0-.4,0-.5.1s-.3.2-.4.3-.2.3-.3.4-.1.3-.1.5,0,.4.1.5c0,.2.2.3.3.4s.3.2.4.3c.3.1.7.1,1.1,0,.2,0,.3-.2.4-.3.1-.1.2-.3.3-.4,0-.2.1-.3.1-.5s0-.4-.1-.5c0-.2-.2-.3-.3-.4-.1-.1-.3-.2-.4-.3-.2,0-.3-.1-.5-.1Z"/>
</svg>