<?xml version="1.0" encoding="UTF-8"?>
<svg id="Layer_1" xmlns="http://www.w3.org/2000/svg" version="1.1" viewBox="0 0 16 16">
  <!-- Generator: Adobe Illustrator 30.0.0, SVG Export Plug-In . SVG Version: 2.1.1 Build 123)  -->
  <defs>
    <style>
      .st0 {
        fill: #010101;
      }
    </style>
  </defs>
  <path class="st0" d="M13,15.8H4.5c-1.5,0-2.8-1.2-2.8-2.8V3C1.8,1.5,3,.2,4.5.2h8.5c1.5,0,2.8,1.2,2.8,2.8v10c0,1.5-1.2,2.8-2.8,2.8ZM4.5,1.8c-.7,0-1.2.6-1.2,1.2v10c0,.7.6,1.2,1.2,1.2h8.5c.7,0,1.2-.6,1.2-1.2V3c0-.7-.6-1.2-1.2-1.2H4.5Z"/>
  <path class="st0" d="M4,5H1c-.4,0-.8-.3-.8-.8s.3-.8.8-.8h3c.4,0,.8.3.8.8s-.3.8-.8.8Z"/>
  <path class="st0" d="M4,8.8H1c-.4,0-.8-.3-.8-.8s.3-.8.8-.8h3c.4,0,.8.3.8.8s-.3.8-.8.8Z"/>
  <path class="st0" d="M4,12.5H1c-.4,0-.8-.3-.8-.8s.3-.8.8-.8h3c.4,0,.8.3.8.8s-.3.8-.8.8Z"/>
  <path class="st0" d="M9.2,9.2c-1.5,0-2.6-1.2-2.6-2.6s1.2-2.6,2.6-2.6,2.7,1.2,2.7,2.6-1.2,2.6-2.7,2.6ZM9.2,5.5c-.6,0-1.1.5-1.1,1.1s.5,1.1,1.1,1.1,1.2-.5,1.2-1.1-.5-1.1-1.2-1.1Z"/>
  <path class="st0" d="M11.2,12h-4c-.4,0-.8-.3-.8-.8s.3-.8.8-.8h4c.4,0,.8.3.8.8s-.3.8-.8.8Z"/>
</svg>