<svg viewBox="0 0 16 16" xmlns="http://www.w3.org/2000/svg">
  <g>
  <path d="M6.18753 11.9583H11.6251M0.75 4.70831H3.46876M0.75 8.33331H3.46876M0.75 11.9583H3.46876M15.2501 2.89581V13.7708C15.2501 14.0088 15.2032 14.2445 15.1121 14.4644C15.021 14.6843 14.8875 14.8841 14.7192 15.0524C14.5509 15.2207 14.3511 15.3543 14.1312 15.4453C13.9113 15.5364 13.6756 15.5833 13.4376 15.5833H4.37501C3.8943 15.5833 3.43328 15.3924 3.09337 15.0524C2.75346 14.7125 2.5625 14.2515 2.5625 13.7708V2.89581C2.5625 2.41511 2.75346 1.95409 3.09337 1.61418C3.43328 1.27427 3.8943 1.08331 4.37501 1.08331H13.4376C13.9183 1.08331 14.3793 1.27427 14.7192 1.61418C15.0591 1.95409 15.2501 2.41511 15.2501 2.89581ZM7.09399 7.42706C7.09399 7.66508 7.14087 7.90077 7.23196 8.12068C7.32304 8.34058 7.45655 8.54039 7.62486 8.70869C7.79316 8.877 7.99297 9.01051 8.21288 9.10159C8.43278 9.19268 8.66847 9.23956 8.90649 9.23956C9.14452 9.23956 9.38021 9.19268 9.60011 9.10159C9.82001 9.01051 10.0198 8.877 10.1881 8.70869C10.3564 8.54039 10.4899 8.34058 10.581 8.12068C10.6721 7.90077 10.719 7.66508 10.719 7.42706C10.719 7.18904 10.6721 6.95335 10.581 6.73345C10.4899 6.51355 10.3564 6.31374 10.1881 6.14543C10.0198 5.97713 9.82001 5.84362 9.60011 5.75253C9.38021 5.66144 9.14452 5.61456 8.90649 5.61456C8.66847 5.61456 8.43278 5.66144 8.21288 5.75253C7.99297 5.84362 7.79316 5.97713 7.62486 6.14543C7.45655 6.31374 7.32304 6.51355 7.23196 6.73345C7.14087 6.95335 7.09399 7.18904 7.09399 7.42706Z"/>
  </g>
</svg>
