<svg xmlns="http://www.w3.org/2000/svg" viewBox="0 0 16 16">
  <path d="M6.1,11.8h5.6M.5,4.2h2.8M.5,8h2.8M.5,11.8h2.8M15.5,2.4v11.2c0,.2,0,.5-.1.7,0,.2-.2.4-.4.6s-.4.3-.6.4c-.2,0-.5.1-.7.1H4.2c-.5,0-1-.2-1.3-.5s-.5-.8-.5-1.3V2.4c0-.5.2-1,.5-1.3.4-.4.8-.5,1.3-.5h9.4c.5,0,1,.2,1.3.5.4.4.5.8.5,1.3ZM7.1,7.1c0,.2,0,.5.1.7,0,.2.2.4.4.6.2.2.4.3.6.4.2,0,.5.1.7.1s.5,0,.7-.1c.2,0,.4-.2.6-.4.2-.2.3-.4.4-.6,0-.2.1-.5.1-.7s0-.5-.1-.7c0-.2-.2-.4-.4-.6-.2-.2-.4-.3-.6-.4-.2,0-.5-.1-.7-.1s-.5,0-.7.1c-.2,0-.4.2-.6.4-.2.2-.3.4-.4.6,0,.2-.1.5-.1.7Z"/>
</svg>