<?xml version="1.0" encoding="UTF-8"?>
<svg id="Layer_1" xmlns="http://www.w3.org/2000/svg" version="1.1" viewBox="0 0 16 16">
  <!-- Generator: Adobe Illustrator 30.0.0, SVG Export Plug-In . SVG Version: 2.1.1 Build 123)  -->
  <defs>
    <style>
      .st0 {
        fill: #231f20;
      }
    </style>
  </defs>
  <path class="st0" d="M10.1,15.8c-.1,0-.3,0-.4-.1-.3-.2-.4-.7-.2-1l4.6-6.6L9.5,1.4c-.2-.3-.2-.8.2-1,.3-.2.8-.2,1,.2l4.9,7c.2.3.2.6,0,.9l-4.9,7c-.1.2-.4.3-.6.3Z"/>
  <path class="st0" d="M1,15.8c-.1,0-.3,0-.4-.1-.3-.2-.4-.7-.2-1l4.6-6.6L.4,1.4c-.2-.3-.2-.8.2-1,.3-.2.8-.2,1,.2l4.9,7c.2.3.2.6,0,.9L1.6,15.4c-.1.2-.4.3-.6.3Z"/>
</svg>