<?xml version="1.0" encoding="UTF-8"?>
<svg id="Layer_1" xmlns="http://www.w3.org/2000/svg" version="1.1" viewBox="0 0 16 16">
  <!-- Generator: Adobe Illustrator 30.0.0, SVG Export Plug-In . SVG Version: 2.1.1 Build 123)  -->
  <defs>
    <style>
      .st0 {
        fill: #231f20;
      }
    </style>
  </defs>
  <path class="st0" d="M15,12.4h-1.8c-3.8,0-4.2-.1-6.7-4q-2.2-3.3-5.5-3.3c-.4,0-.8-.3-.8-.8s.3-.8.8-.8c3.8,0,4.2.1,6.7,4q2.2,3.3,5.5,3.3h1.8c.4,0,.8.3.8.8s-.3.8-.8.8Z"/>
  <path class="st0" d="M8.7,6.5c-.2,0-.3,0-.5-.2-.3-.3-.4-.7,0-1.1,1.4-1.7,2.5-1.7,5.1-1.7h1.8c.4,0,.8.3.8.8s-.3.8-.8.8h-1.8c-2.6,0-3,0-3.9,1.1-.1.2-.4.3-.6.3Z"/>
  <path class="st0" d="M1,12.4c-.4,0-.8-.3-.8-.8s.3-.8.8-.8c2.6,0,3,0,3.9-1.1.3-.3.7-.4,1.1,0,.3.3.4.7,0,1.1-1.4,1.7-2.5,1.7-5.1,1.7Z"/>
  <path class="st0" d="M12.7,7.4c-.4,0-.7-.3-.7-.7,0-.4.3-.8.7-.8,0,0,1-.1,1.5-1.6-.6-1.5-1.5-1.6-1.6-1.6-.4,0-.7-.4-.7-.8,0-.4.4-.7.8-.7,0,0,2,.2,3,2.8,0,.2,0,.3,0,.5-.9,2.7-2.9,2.8-3,2.8,0,0,0,0,0,0Z"/>
  <path class="st0" d="M12.7,14.8c-.4,0-.7-.3-.7-.7,0-.4.3-.8.7-.8,0,0,1-.1,1.5-1.6-.6-1.5-1.5-1.6-1.6-1.6-.4,0-.7-.4-.7-.8,0-.4.4-.7.8-.7,0,0,2,.2,3,2.8,0,.2,0,.3,0,.5-.9,2.7-2.9,2.8-3,2.8,0,0,0,0,0,0Z"/>
</svg>