<svg xmlns="http://www.w3.org/2000/svg" viewBox="0 0 16 16">
  <path d="M13.5,15.2c-.3,0-.5-.2-.5-.5s.2-.5.5-.5c.5,0,1.3-.7,1.8-1.5h-3c-1.3,0-2.6-.6-3.4-1.7l-3.4-4.5c-.6-.8-1.6-1.3-2.6-1.3h-1.9c-.3,0-.5-.2-.5-.5s.2-.5.5-.5h1.9c1.3,0,2.6.6,3.4,1.7l3.4,4.5c.6.8,1.6,1.3,2.6,1.3h3c-.4-.8-1.2-1.5-1.8-1.5s-.5-.2-.5-.5.2-.5.5-.5c1.2,0,2.6,1.4,3,2.8,0,0,0,0,0,0,0,0,0,0,0,.1s0,0,0,.1,0,0,0,0c-.4,1.5-1.8,2.8-3,2.8ZM2.9,12.7h-1.9c-.3,0-.5-.2-.5-.5s.2-.5.5-.5h1.9c1,0,2-.5,2.6-1.3.2-.2.5-.3.7,0,.2.2.3.5,0,.7-.8,1.1-2.1,1.7-3.4,1.7ZM13.5,7.8c-.3,0-.5-.2-.5-.5s.2-.5.5-.5c.5,0,1.3-.7,1.8-1.5h-3c-1,0-2,.5-2.6,1.3-.2.2-.5.3-.7,0-.2-.2-.3-.5,0-.7.8-1.1,2.1-1.7,3.4-1.7h3c-.4-.8-1.2-1.5-1.8-1.5s-.5-.2-.5-.5.2-.5.5-.5c1.2,0,2.6,1.4,3,2.8,0,0,0,0,0,0,0,0,0,0,0,.1h0s0,0,0,.1c0,0,0,0,0,0-.4,1.5-1.8,2.8-3,2.8Z"/>
</svg>