<svg xmlns="http://www.w3.org/2000/svg" viewBox="0 0 16 16">
  <path d="M16,2.9c0-.8-.3-1.5-.8-2.1C14.6.3,13.9,0,13.1,0c-.8,0-1.5.4-2,.9l-6,6.7c-.2,0-.3,0-.5,0-.5,0-1,.1-1.5.4-.5.2-.9.5-1.2.9-1,1-.9,1.8-.8,2.6,0,.8.2,1.6-.9,2.7-.2.2-.2.5,0,.7.8.8,1.9,1.2,3.2,1.2s.7,0,1.1-.1c1.8-.3,3.2-1.4,3.8-2.9.2-.5.3-1,.4-1.5,0-.2,0-.5,0-.7l6.6-5.9c.6-.5.9-1.2.9-2ZM7.3,12.6c-.5,1.2-1.6,2-3.1,2.3-1.1.2-2.3,0-3-.5,1-1.3.9-2.3.9-3.1,0-.7-.1-1.2.5-1.8.3-.3.6-.5.9-.7.4-.2.7-.3,1.1-.3.4,0,.8,0,1.1.2.4.1.7.4,1,.6.3.3.5.6.6,1,.1.4.2.7.2,1.1,0,.4,0,.8-.3,1.1ZM14.4,4.2l-6.2,5.6c-.2-.4-.4-.8-.7-1.1-.4-.4-.8-.6-1.2-.8L11.8,1.6c.3-.4.8-.6,1.3-.6.5,0,1,.2,1.3.5.3.3.5.8.5,1.3,0,.5-.2,1-.6,1.3Z"/>
</svg>