<?xml version="1.0" encoding="UTF-8"?>
<svg id="Layer_1" xmlns="http://www.w3.org/2000/svg" version="1.1" viewBox="0 0 16 16">
  <!-- Generator: Adobe Illustrator 30.0.0, SVG Export Plug-In . SVG Version: 2.1.1 Build 123)  -->
  <path d="M3.9,15.8c-1.4,0-2.6-.6-3.4-1.1-.2-.2-.3-.4-.3-.7s.2-.5.4-.6c1.1-.6,1-1.1.8-2-.2-1-.5-2.4,1.3-3.6,1.5-1,3.4-.6,4.7.9,1.2,1.5,1.6,3.9,0,5.6-1.1,1.1-2.3,1.5-3.4,1.5ZM2.4,13.9c1,.4,2.5.7,3.9-.7h0c1.1-1.2.8-2.7,0-3.6-.6-.7-1.7-1.3-2.7-.6-.9.6-.8,1.1-.6,2.1.2.8.4,1.9-.5,2.9Z"/>
  <path d="M8.2,11.5l-1-1.1s5-4.7,6.8-6.4c.3-.3.4-.6.3-1-.1-.6-.7-1.1-1.2-1.2-.5-.1-1,0-1.5.5-2.2,2.4-5.5,6.2-5.5,6.2l-1.1-1s3.4-3.9,5.5-6.2c.8-.9,1.9-1.3,3-1,1.1.3,2,1.2,2.3,2.3.2.9,0,1.8-.7,2.5-1.8,1.7-6.8,6.4-6.8,6.4Z"/>
</svg>