<svg viewBox="0 0 16 16" xmlns="http://www.w3.org/2000/svg">
  <g>
  <path d="M5.43128 8.42535L11.351 1.82393C12.1925 0.878066 13.7114 0.83124 14.6094 1.72351C15.5023 2.62156 15.4553 4.14038 14.509 4.98166L7.9736 10.8333M7.03251 13.9753C5.32519 15.6937 2.42385 16.2627 0.75 14.5444C2.9818 12.2346 0.75 11.1189 2.42385 9.44514C2.71777 9.11777 3.07535 8.85376 3.47476 8.66926C3.87416 8.48475 4.307 8.38363 4.74682 8.37206C5.18664 8.36047 5.6242 8.4387 6.03276 8.60195C6.44132 8.76519 6.8123 9.01002 7.12303 9.32149C7.43375 9.63294 7.67769 10.0045 7.83996 10.4134C8.00222 10.8223 8.07937 11.26 8.06673 11.6998C8.05408 12.1396 7.95188 12.5721 7.76639 12.9711C7.58089 13.37 7.316 13.7268 6.98788 14.0199L7.03251 13.9753Z"/>
  </g>
</svg>
