<?xml version="1.0" encoding="UTF-8"?>
<svg id="Layer_1" xmlns="http://www.w3.org/2000/svg" version="1.1" viewBox="0 0 16 16">
  <!-- Generator: Adobe Illustrator 30.0.0, SVG Export Plug-In . SVG Version: 2.1.1 Build 123)  -->
  <defs>
    <style>
      .st0 {
        fill: #010101;
      }
    </style>
  </defs>
  <path class="st0" d="M11.8,15.8h-7.6c-1.2,0-2.2-1-2.2-2.2v-5.6c0-1.2,1-2.2,2.2-2.2h7.6c1.2,0,2.2,1,2.2,2.2v5.6c0,1.2-1,2.2-2.2,2.2ZM4.2,7.2c-.4,0-.8.3-.8.8v5.6c0,.4.3.8.8.8h7.6c.4,0,.8-.3.8-.8v-5.6c0-.4-.3-.8-.8-.8h-7.6Z"/>
  <path class="st0" d="M12,6.5h-1.5v-2.2c0-1.4-1.1-2.5-2.5-2.5s-2.5,1.1-2.5,2.5v2.2h-1.5v-2.2C4,2,5.8.2,8,.2s4,1.8,4,4v2.2Z"/>
  <path class="st0" d="M8,12.2c-.4,0-.8-.3-.8-.8v-1.3c0-.4.3-.8.8-.8s.8.3.8.8v1.3c0,.4-.3.8-.8.8Z"/>
</svg>