<svg xmlns="http://www.w3.org/2000/svg" viewBox="0 0 16 16">
  <path d="M12.7,16H3.3c-.6,0-1.5-.4-1.5-1.5v-7.1c0-.6.4-1.5,1.5-1.5h.6v-1.9c0-1,.4-2,1.2-2.8,1.5-1.5,4.2-1.5,5.7,0,.8.7,1.2,1.7,1.2,2.8v1.9h.6c.6,0,1.5.4,1.5,1.5v7.1c0,.6-.4,1.5-1.5,1.5ZM4.4,6.8h-1.1c-.4,0-.5.3-.5.5v7.1c0,.4.3.5.5.5h9.3c.4,0,.5-.3.5-.5v-7.1c0-.4-.3-.5-.5-.5H4.4ZM4.9,5.8h6.1v-1.9c0-.8-.3-1.5-.9-2-1.1-1.1-3.2-1.1-4.3,0-.6.5-.9,1.3-.9,2v1.9ZM8,12.1c-.3,0-.5-.2-.5-.5v-1.4c0-.3.2-.5.5-.5s.5.2.5.5v1.4c0,.3-.2.5-.5.5Z"/>
</svg>