<svg xmlns="http://www.w3.org/2000/svg" viewBox="0 0 16 16">
  <path d="M13.7,16c-.3,0-.5-.2-.5-.5v-1.7c0-.8-.3-1.5-.9-2.1-.6-.6-1.5-.9-2.3-.9h-3.8c-.9,0-1.7.3-2.3.9-.6.6-.9,1.3-.9,2.1v1.7c0,.3-.2.5-.5.5s-.5-.2-.5-.5v-1.7c0-1,.5-2.1,1.3-2.8.8-.7,1.9-1.1,3-1.1h3.8c1.1,0,2.2.4,3,1.1.8.7,1.3,1.8,1.3,2.8v1.7c0,.3-.2.5-.5.5ZM8,8.2c-1.1,0-2.1-.4-2.9-1.2-.8-.8-1.2-1.8-1.2-2.9s.4-2.1,1.2-2.9c.8-.8,1.8-1.2,2.9-1.2s2.1.4,2.9,1.2c.8.8,1.2,1.8,1.2,2.9s-.4,2.1-1.2,2.9c-.8.8-1.8,1.2-2.9,1.2ZM8,1c-.8,0-1.6.3-2.2.9-.6.6-.9,1.4-.9,2.2s.3,1.6.9,2.2c1.2,1.2,3.2,1.2,4.4,0s.9-1.4.9-2.2-.3-1.6-.9-2.2c-.6-.6-1.4-.9-2.2-.9Z"/>
</svg>