<?xml version="1.0" encoding="UTF-8"?>
<svg id="Layer_1" xmlns="http://www.w3.org/2000/svg" version="1.1" viewBox="0 0 16 16">
  <!-- Generator: Adobe Illustrator 30.0.0, SVG Export Plug-In . SVG Version: 2.1.1 Build 123)  -->
  <defs>
    <style>
      .st0 {
        fill: #231f20;
      }
    </style>
  </defs>
  <path class="st0" d="M8,10.1c-2.7,0-4.9-2.2-4.9-4.9S5.3.2,8,.2s4.9,2.2,4.9,4.9-2.2,4.9-4.9,4.9ZM8,1.8c-1.9,0-3.4,1.5-3.4,3.4s1.5,3.4,3.4,3.4,3.4-1.5,3.4-3.4-1.5-3.4-3.4-3.4Z"/>
  <path class="st0" d="M1,15.8c-.1,0-.2,0-.3,0-.4-.2-.5-.6-.4-1,.9-1.9,2.9-3.2,5-3.2h5.3c2.1,0,4.1,1.2,5,3.2.2.4,0,.8-.4,1-.4.2-.8,0-1-.4-.7-1.4-2.1-2.3-3.7-2.3h-5.3c-1.6,0-3,.9-3.7,2.3-.1.3-.4.4-.7.4Z"/>
</svg>