<svg xmlns="http://www.w3.org/2000/svg" viewBox="0 0 16 16">
  <path d="M11.4,16h-2.5c-.2,0-.6,0-1-.3-.3-.3-.3-.7-.3-1v-.8c0-.3-.2-.7-.4-.9-.5-.5-1.2-.5-1.7,0s-.4.5-.4.9v.8c0,.2,0,.6-.3,1-.3.3-.7.3-1,.3H1.3c-.2,0-.6,0-1-.3-.3-.3-.3-.7-.3-1v-2.5c0-.2,0-.6.3-1s.7-.3,1-.3h.8c.3,0,.7-.2.9-.4.2-.2.4-.5.4-.9s-.1-.6-.4-.9c-.2-.2-.5-.4-.9-.4h-.8c-.2,0-.6,0-1-.3s-.3-.7-.3-1v-2.5c0-.2,0-.6.3-1,.3-.3.7-.3,1-.3h2.5c.2,0,.2,0,.2,0s0,0,0-.2v-.8c0-.5.3-1.2.6-1.6.8-.8,2.3-.8,3.1,0s.7,1,.7,1.6v.8c0,.2,0,.2,0,.2s0,0,.2,0h2.5c.2,0,.6,0,1,.3.3.3.3.7.3,1v2.5c0,.2,0,.2,0,.3s0,0,.3,0h.8c.5,0,1.2.3,1.6.6.4.4.7,1,.7,1.6s-.2,1.1-.6,1.6c-.4.4-1,.7-1.6.7h-.8c-.2,0-.2,0-.3,0s0,0,0,.2v2.5c0,.2,0,.6-.3,1-.3.3-.7.3-1,.3ZM6.3,11.7c.6,0,1.1.2,1.6.6s.7,1,.7,1.6v.8c0,.2,0,.2,0,.2s0,0,.2,0h2.5c.2,0,.2,0,.2,0s0,0,0-.3v-2.5c0-.2,0-.6.3-1,.3-.3.7-.3,1-.3h.8c.3,0,.6-.1.9-.4.2-.2.4-.5.4-.9s-.1-.6-.4-.9c-.2-.2-.6-.4-.9-.4h-.8c-.2,0-.6,0-1-.3-.3-.3-.3-.7-.3-1v-2.5c0-.2,0-.2,0-.2s0,0-.3,0h-2.5c-.2,0-.6,0-1-.3s-.3-.7-.3-1v-.8c0-.3-.1-.6-.4-.9-.5-.5-1.2-.5-1.7,0s-.4.6-.4.9v.8c0,.2,0,.6-.3,1-.3.3-.7.3-1,.3H1.3c-.2,0-.2,0-.2,0s0,0,0,.3v2.5c0,.2,0,.2,0,.3s0,0,.3,0h.8c.6,0,1.1.2,1.6.6.4.4.7,1,.7,1.6s-.2,1.1-.6,1.6c-.4.4-1,.7-1.6.7h-.8c-.2,0-.2,0-.3,0s0,0,0,.3v2.5c0,.2,0,.2,0,.2s0,0,.3,0h2.5c.2,0,.2,0,.2,0s0,0,0-.3v-.8c0-.6.2-1.1.6-1.6s1-.6,1.6-.6Z"/>
</svg>