<svg xmlns="http://www.w3.org/2000/svg" viewBox="0 0 16 16">
  <path d="M1.3,3.8h2.5c.2,0,.4,0,.6-.2.2-.2.2-.4.2-.6v-.8c0-.4.2-.9.5-1.2.3-.3.7-.5,1.2-.5s.9.2,1.2.5c.3.3.5.7.5,1.2v.8c0,.2,0,.4.2.6.2.2.4.2.6.2h2.5c.2,0,.4,0,.6.2.2.2.2.4.2.6v2.5c0,.2,0,.4.2.6s.4.2.6.2h.8c.4,0,.9.2,1.2.5s.5.7.5,1.2-.2.9-.5,1.2-.7.5-1.2.5h-.8c-.2,0-.4,0-.6.2-.2.2-.2.4-.2.6v2.5c0,.2,0,.4-.2.6-.2.2-.4.2-.6.2h-2.5c-.2,0-.4,0-.6-.2-.2-.2-.2-.4-.2-.6v-.8c0-.4-.2-.9-.5-1.2s-.7-.5-1.2-.5-.9.2-1.2.5c-.3.3-.5.7-.5,1.2v.8c0,.2,0,.4-.2.6-.2.2-.4.2-.6.2H1.3c-.2,0-.4,0-.6-.2-.2-.2-.2-.4-.2-.6v-2.5c0-.2,0-.4.2-.6.2-.2.4-.2.6-.2h.8c.4,0,.9-.2,1.2-.5s.5-.7.5-1.2-.2-.9-.5-1.2-.7-.5-1.2-.5h-.8c-.2,0-.4,0-.6-.2-.2-.2-.2-.4-.2-.6v-2.5c0-.2,0-.4.2-.6.2-.2.4-.2.6-.2Z"/>
</svg>