<?xml version="1.0" encoding="UTF-8"?>
<svg id="Layer_1" xmlns="http://www.w3.org/2000/svg" version="1.1" viewBox="0 0 16 16">
  <!-- Generator: Adobe Illustrator 30.0.0, SVG Export Plug-In . SVG Version: 2.1.1 Build 123)  -->
  <defs>
    <style>
      .st0 {
        fill: #010101;
      }
    </style>
  </defs>
  <path class="st0" d="M5,10.8H1c-.4,0-.8-.3-.8-.8v-4c0-.4.3-.8.8-.8h4c.4,0,.8.3.8.8v4c0,.4-.3.8-.8.8ZM1.8,9.2h2.5v-2.5H1.8v2.5Z"/>
  <path class="st0" d="M15,6.8h-6.1c-.4,0-.8-.3-.8-.8s.3-.8.8-.8h6.1c.4,0,.8.3.8.8s-.3.8-.8.8Z"/>
  <path class="st0" d="M15,10.8h-6.1c-.4,0-.8-.3-.8-.8s.3-.8.8-.8h6.1c.4,0,.8.3.8.8s-.3.8-.8.8Z"/>
  <path class="st0" d="M15,14.8H1c-.4,0-.8-.3-.8-.8s.3-.8.8-.8h14c.4,0,.8.3.8.8s-.3.8-.8.8Z"/>
  <path class="st0" d="M15,2.8H1c-.4,0-.8-.3-.8-.8s.3-.8.8-.8h14c.4,0,.8.3.8.8s-.3.8-.8.8Z"/>
</svg>