<?xml version="1.0" encoding="UTF-8"?>
<svg id="Layer_1" xmlns="http://www.w3.org/2000/svg" version="1.1" viewBox="0 0 16 16">
  <!-- Generator: Adobe Illustrator 30.0.0, SVG Export Plug-In . SVG Version: 2.1.1 Build 123)  -->
  <defs>
    <style>
      .st0 {
        fill: #010101;
      }
    </style>
  </defs>
  <path class="st0" d="M1,15.8c-.2,0-.4,0-.5-.2-.2-.2-.3-.4-.2-.7l1-4.5c0-.1.1-.3.2-.4L10.3,1.2C11.5,0,13.6,0,14.8,1.2c.6.6.9,1.4.9,2.2s-.3,1.6-.9,2.2L6,14.5c0,0-.2.2-.4.2l-4.5,1c0,0-.1,0-.2,0ZM2.7,10.9l-.7,3.1,3.1-.7L13.8,4.6c.3-.3.5-.7.5-1.2s-.2-.9-.5-1.2c-.6-.6-1.7-.6-2.4,0L2.7,10.9ZM5.5,14h0,0Z"/>
  <rect class="st0" x="3.8" y="9" width="1.5" height="4.9" transform="translate(-6.7 6.6) rotate(-45)"/>
</svg>