<svg xmlns="http://www.w3.org/2000/svg" viewBox="0 0 16 16">
  <path d="M.5,16c-.1,0-.3,0-.4-.1s-.2-.3-.1-.5l1.2-4.6c0,0,0-.2.1-.2L10,1.9s0,0,0,0,0,0,0,0l.9-.9c.3-.3.6-.5.9-.6.4-.2.7-.2,1.1-.2.4,0,.8,0,1.1.2.4.1.7.4,1,.6,0,0,0,0,0,0,.3.3.5.6.6,1,.1.4.2.7.2,1.1,0,.4,0,.8-.2,1.1-.2.4-.4.7-.6.9L6.2,13.9s0,0,0,0,0,0,0,0l-.7.7c0,0-.1.1-.2.1l-4.6,1.2s0,0-.1,0ZM2.1,11.2l-.9,3.7,3.7-.9.3-.3-2.7-2.7-.3.3ZM3.1,10.2l2.7,2.7,7.3-7.3-2.7-2.7-7.3,7.3ZM11.1,2.2l2.7,2.7.6-.6c.2-.2.3-.4.4-.6s.2-.5.2-.7c0-.3,0-.5-.1-.7,0-.2-.2-.4-.4-.6-.2-.2-.4-.3-.6-.4-.2,0-.5-.1-.7-.1-.3,0-.5,0-.7.2-.2.1-.4.2-.6.4l-.6.6Z"/>
</svg>