<?xml version="1.0" encoding="UTF-8"?>
<svg id="Layer_1" xmlns="http://www.w3.org/2000/svg" version="1.1" viewBox="0 0 16 16">
  <!-- Generator: Adobe Illustrator 30.0.0, SVG Export Plug-In . SVG Version: 2.1.1 Build 123)  -->
  <defs>
    <style>
      .st0 {
        fill: #010101;
      }
    </style>
  </defs>
  <rect class="st0" x="5.6" y="4.2" width="11" height="1.5" transform="translate(-.2 9.3) rotate(-45)"/>
  <path class="st0" d="M10.3,15.8c-.3,0-.5-.2-.7-.4l-3-6L.7,6.3c-.3-.1-.4-.4-.4-.7,0-.3.2-.6.5-.7L14.8.3c.3,0,.6,0,.8.2.2.2.3.5.2.8l-4.7,14c0,.3-.4.5-.7.5,0,0,0,0,0,0ZM2.9,5.8l4.6,2.3c.1,0,.3.2.3.3l2.3,4.6,3.6-10.9L2.9,5.8Z"/>
</svg>