<?xml version="1.0" encoding="UTF-8"?>
<svg id="Layer_1" xmlns="http://www.w3.org/2000/svg" version="1.1" viewBox="0 0 16 16">
  <!-- Generator: Adobe Illustrator 30.0.0, SVG Export Plug-In . SVG Version: 2.1.1 Build 123)  -->
  <defs>
    <style>
      .st0 {
        fill: #231f20;
      }
    </style>
  </defs>
  <path class="st0" d="M12.1,13.8H3c-1.5,0-2.7-1.4-2.7-3.2s.3-1.7.8-2.3c.4-.4.8-.6,1.4-.7-.1-1.1.1-2.2.8-3.1,1-1.4,2.7-2.3,4.6-2.3s3.4.8,4,1.5c.6.6.9,1.4.9,2.3.7,0,1.2.3,1.7.7.8.7,1.2,1.8,1.2,3,0,2.2-1.6,4-3.7,4ZM3.2,9.1c-.5,0-.8.1-1.1.3-.3.3-.4.8-.4,1.2,0,.9.5,1.7,1.2,1.7h9.1c1.2,0,2.2-1.1,2.2-2.5s-.3-1.4-.7-1.8c-.4-.3-.9-.4-1.4-.4-.2,0-.5,0-.6-.2-.2-.2-.2-.4-.2-.6.1-.8,0-1.4-.5-2-.6-.7-1.6-1-2.9-1s-2.6.6-3.3,1.6c-.6.8-.7,1.8-.4,2.7,0,.2,0,.5-.1.7-.2.2-.4.3-.6.3,0,0-.1,0-.2,0Z"/>
</svg>