<?xml version="1.0" encoding="UTF-8"?>
<svg id="Layer_1" xmlns="http://www.w3.org/2000/svg" version="1.1" viewBox="0 0 16 16">
  <!-- Generator: Adobe Illustrator 30.0.0, SVG Export Plug-In . SVG Version: 2.1.1 Build 123)  -->
  <defs>
    <style>
      .st0 {
        fill: #231f20;
      }
    </style>
  </defs>
  <path class="st0" d="M8,15.8C3.7,15.8.2,12.3.2,8S3.7.2,8,.2s1.1,0,1.6.2c.4,0,.7.5.6.9,0,.4-.5.7-.9.6-.4,0-.8-.1-1.3-.1-3.4,0-6.2,2.8-6.2,6.2s2.8,6.2,6.2,6.2,6.2-2.8,6.2-6.2,0-.9-.1-1.3c0-.4.2-.8.6-.9.4,0,.8.2.9.6.1.5.2,1.1.2,1.7,0,4.3-3.5,7.8-7.8,7.8Z"/>
</svg>